<?xml version="1.0" standalone="no"?>
<!DOCTYPE svg PUBLIC "-//W3C//DTD SVG 20010904//EN"
 "http://www.w3.org/TR/2001/REC-SVG-20010904/DTD/svg10.dtd">
<svg version="1.0" xmlns="http://www.w3.org/2000/svg"
 width="512.000000pt" height="512.000000pt" viewBox="0 0 512.000000 512.000000"
 preserveAspectRatio="xMidYMid meet">

<g transform="translate(0.000000,512.000000) scale(0.100000,-0.100000)"
fill="#000000" stroke="none">
<path d="M2321 5109 c-486 -43 -989 -249 -1376 -564 -114 -92 -294 -274 -384
-387 -229 -287 -417 -675 -495 -1023 -49 -218 -60 -325 -60 -575 0 -250 11
-357 60 -575 79 -355 272 -749 509 -1040 92 -114 274 -294 387 -384 287 -229
675 -417 1023 -495 220 -49 324 -60 575 -60 267 1 406 18 642 78 182 47 302
92 493 186 731 358 1254 1062 1389 1870 120 720 -75 1457 -537 2030 -105 130
-311 331 -440 428 -515 388 -1144 568 -1786 511z m589 -184 c629 -97 1180
-425 1561 -931 344 -458 520 -1062 470 -1619 -45 -502 -220 -939 -528 -1320
-45 -55 -95 -113 -112 -129 l-31 -30 0 270 c0 436 -21 568 -120 771 -122 248
-333 444 -584 542 -198 77 -179 76 -1006 76 -827 0 -808 1 -1006 -76 -251 -98
-462 -294 -584 -542 -99 -203 -120 -335 -120 -771 l0 -270 -31 30 c-17 16 -67
74 -112 129 -213 264 -375 582 -457 899 -144 559 -89 1130 159 1641 110 227
226 400 387 576 415 451 932 706 1569 773 87 9 444 -3 545 -19z m373 -2546
c439 -65 765 -407 807 -846 5 -60 10 -264 10 -454 l0 -346 -92 -71 c-336 -254
-703 -406 -1131 -468 -138 -20 -471 -23 -607 -5 -432 57 -817 215 -1157 473
l-93 71 0 346 c0 190 5 394 10 454 41 429 353 767 780 842 97 17 1363 21 1473
4z"/>
<path d="M2457 4430 c-361 -44 -660 -321 -732 -679 -14 -65 -16 -113 -12 -205
7 -143 23 -209 82 -332 109 -225 306 -389 551 -456 63 -17 106 -21 214 -21
108 0 151 4 214 21 177 49 339 154 449 292 64 80 137 222 162 315 25 90 31
293 11 384 -56 263 -217 474 -451 591 -156 79 -325 110 -488 90z m253 -181
c30 -6 98 -31 150 -56 79 -38 109 -59 176 -127 133 -134 192 -264 201 -446 6
-131 -12 -222 -66 -334 -82 -169 -220 -289 -406 -352 -68 -23 -97 -27 -200
-28 -99 -1 -133 3 -195 22 -187 58 -334 183 -421 357 -54 109 -72 203 -66 335
9 182 68 312 201 446 116 116 239 174 421 198 39 5 135 -2 205 -15z"/>
</g>
</svg>
